# xmcd CD database file
#
# Track frame offsets:
#	150
#	13272
#	25009
#	41940
#	59171
#	78708
#	99978
#	112885
#	127516
#	142011
#	158787
#	181638
#	199332
#	211485
#	226952
#	240554
#	252446
#	263321
#	278448
#
# Disc length: 4125 seconds
#
# Revision: 0
# Processed by: cddbd v1.5.2PL0 Copyright (c) Steve Scherf et al.
# Submitted via: CDex 1.70beta2
#
DISCID=fd101b13
DTITLE=Red Norvo - Giants of Jazz 2
DYEAR=1900
DGENRE=Jazz
TTITLE0=Just You, Just Me: Red Norvo and His Orchestra 
TTITLE1=St. Louis Blues: Mildred Bailey and Her Orchestra 
TTITLE2=Smooth Sailing: Edmond Hall’s All Star Quintet
TTITLE3=Subtle Sextology: Red Norvo’s All Star Sextet
TTITLE4=The Man I Love: Red Norvo’s All Star Sextet 
TTITLE5=Russian Lullaby: Red Norvo’s All Star Septet
TTITLE6=Bugle Call Rag: Teddy Wilson Quintet
TTITLE7=After You’ve Gone: Benny Goodman Sextet
TTITLE8=Slipped Disc: Benny Goodman Sextet
TTITLE9=Get Happy: Red Norvo and His Selected Sextet 
TTITLE10=Slam Slam Blues (Bird’s Blues): Red Norvo All Stars 
TTITLE11=Congo Blues: Red Norvo and His Selected Sextet 
TTITLE12=Igor: Woody Herman and His Woodchoppers
TTITLE13=I Surrender Dear: Woody Herman and His Woodchoppers 
TTITLE14=Ghost of a Chance: Red Norvo
TTITLE15=Move: Red Norvo Trio
TTITLE16=I’ve Got You under My Skin: Red Norvo Trio
TTITLE17=I’ll Remember April: Red Norvo Trio
TTITLE18=Just a Mood
EXTD=
EXTT0=
EXTT1=
EXTT2=
EXTT3=
EXTT4=
EXTT5=
EXTT6=
EXTT7=
EXTT8=
EXTT9=
EXTT10=
EXTT11=
EXTT12=
EXTT13=
EXTT14=
EXTT15=
EXTT16=
EXTT17=
EXTT18=
PLAYORDER=
